HIERARCHY
ROOT Hips
{
	OFFSET -80.168388 91.772041 -268.984589
	CHANNELS 6 Xposition Yposition Zposition Xrotation Yrotation Zrotation 
	JOINT RightUpLeg
	{
		OFFSET 0.103457 1.857818 10.548502
		CHANNELS 3 Xrotation Yrotation Zrotation
		JOINT RightLeg
		{
			OFFSET 43.500000 -0.000011 -0.000004
			CHANNELS 3 Xrotation Yrotation Zrotation
			JOINT RightFoot
			{
				OFFSET 42.372192 -0.000004 -0.000008
				CHANNELS 3 Xrotation Yrotation Zrotation
				JOINT RightToe
				{
					OFFSET 17.300014 0.000006 0.000001
					CHANNELS 3 Xrotation Yrotation Zrotation
					End Site
					{
						OFFSET 0.000000 0.000000 0.000000
					}
				}
			}
		}
	}
	JOINT LeftUpLeg
	{
		OFFSET 0.103457 1.857817 -10.548505
		CHANNELS 3 Xrotation Yrotation Zrotation
		JOINT LeftLeg
		{
			OFFSET 43.500046 -0.000004 0.000011
			CHANNELS 3 Xrotation Yrotation Zrotation
			JOINT LeftFoot
			{
				OFFSET 42.372257 0.000000 0.000015
				CHANNELS 3 Xrotation Yrotation Zrotation
				JOINT LeftToe
				{
					OFFSET 17.300003 -0.000000 0.000002
					CHANNELS 3 Xrotation Yrotation Zrotation
					End Site
					{
						OFFSET 0.000000 0.000000 0.000000
					}
				}
			}
		}
	}
	JOINT Spine
	{
		OFFSET 6.901961 -2.603721 -0.000001
		CHANNELS 3 Xrotation Yrotation Zrotation
		JOINT Spine1
		{
			OFFSET 12.588108 0.000002 -0.000001
			CHANNELS 3 Xrotation Yrotation Zrotation
			JOINT Spine2
			{
				OFFSET 12.343199 -0.000020 0.000006
				CHANNELS 3 Xrotation Yrotation Zrotation
				JOINT Neck
				{
					OFFSET 25.832905 0.000017 0.000000
					CHANNELS 3 Xrotation Yrotation Zrotation
					JOINT Head
					{
						OFFSET 11.766604 -0.000006 0.000004
						CHANNELS 3 Xrotation Yrotation Zrotation
						End Site
						{
							OFFSET 0.000000 0.000000 0.000000
						}
					}
				}
				JOINT RightShoulder
				{
					OFFSET 19.745903 -1.480350 6.000100
					CHANNELS 3 Xrotation Yrotation Zrotation
					JOINT RightArm
					{
						OFFSET 11.284130 -0.000016 -0.000016
						CHANNELS 3 Xrotation Yrotation Zrotation
						JOINT RightForeArm
						{
							OFFSET 33.000046 0.000004 0.000031
							CHANNELS 3 Xrotation Yrotation Zrotation
							JOINT RightHand
							{
								OFFSET 25.199999 0.000027 0.000001
								CHANNELS 3 Xrotation Yrotation Zrotation
								End Site
								{
									OFFSET 0.000000 0.000000 0.000000
								}
							}
						}
					}
				}
				JOINT LeftShoulder
				{
					OFFSET 19.746094 -1.480375 -6.000080
					CHANNELS 3 Xrotation Yrotation Zrotation
					JOINT LeftArm
					{
						OFFSET 11.284131 -0.000016 -0.000017
						CHANNELS 3 Xrotation Yrotation Zrotation
						JOINT LeftForeArm
						{
							OFFSET 33.000095 0.000009 0.000020
							CHANNELS 3 Xrotation Yrotation Zrotation
							JOINT LeftHand
							{
								OFFSET 25.199789 0.000132 0.000423
								CHANNELS 3 Xrotation Yrotation Zrotation
								End Site
								{
									OFFSET 0.000000 0.000000 0.000000
								}
							}
						}
					}
				}
			}
		}
	}
}
MOTION
Frames: 15
Frame Time: 0.033333
-114.455200 89.223534 396.516510 96.174213 2.303718 145.323503 170.196416 -3.020004 167.321685 -31.332666 -4.526660 -10.116659 81.396696 6.745340 -1.693301 21.454558 0.003109 0.000017 164.027184 10.630599 -172.016784 -70.831234 0.206391 1.046965 68.184617 1.292099 5.670898 21.454560 -0.003089 0.000000 9.195691 -2.093984 -1.577565 8.442630 -4.067331 -3.305723 8.124248 -4.087356 -3.281094 16.624457 6.610971 14.403988 -12.050230 -22.097370 22.252172 -173.067021 -71.210856 -8.506981 -32.715004 42.222112 13.094497 -27.544859 -9.318232 0.843544 7.743737 2.465808 11.912350 -159.503509 77.019781 22.423193 10.709601 -71.096423 -46.408677 -32.478595 11.784329 -1.071727 12.515967 -2.112972 -46.207510 
-113.386902 89.267723 397.373413 95.873760 2.558808 145.429399 170.832402 -3.596297 166.936367 -31.800241 -4.422763 -9.704025 82.254725 6.388651 -2.000502 21.454560 0.003109 0.000017 161.481696 11.089497 -171.282990 -70.076928 0.836165 1.563093 68.759193 1.149843 6.495335 21.454557 -0.003095 0.000001 9.227280 -2.142777 -1.670342 8.510861 -4.156944 -3.496014 8.192498 -4.178105 -3.470850 16.332946 6.521326 14.221301 -11.841102 -22.215907 22.059209 -175.428518 -71.219728 -6.075701 -33.824295 40.765202 20.128709 -24.126233 -8.497436 0.735258 10.339885 9.372548 22.632098 -160.678534 77.214804 21.221890 9.135143 -73.291884 -46.474431 -35.424807 12.841508 -1.204860 10.628784 -2.271458 -48.296944 
-112.382301 89.337677 398.234894 95.519219 2.669548 145.514298 171.441109 -3.978502 166.784914 -31.917911 -4.257723 -9.478779 82.890991 6.139462 -2.420800 21.454558 0.003109 0.000017 159.463320 11.373598 -171.572918 -67.473390 1.639602 2.636798 69.431714 0.711081 7.701171 21.454553 -0.003095 0.000003 9.236060 -2.149948 -1.738792 8.531147 -4.165913 -3.633704 8.212820 -4.187901 -3.608488 15.935412 6.276645 14.190174 -11.700074 -22.260594 22.013491 -175.379232 -71.211327 -6.126286 -33.908208 41.123305 23.872986 -24.103768 -9.199905 0.780862 14.382020 14.811952 37.896133 -162.000298 77.543985 19.870111 7.236305 -74.672676 -46.095362 -37.854421 14.394222 -1.363712 9.054043 -2.130358 -55.613002 
-111.394699 89.497917 399.134186 95.152281 2.775233 145.745896 172.264898 -4.249208 166.942896 -31.461815 -4.079096 -9.380272 83.230903 5.971146 -2.882065 21.454560 0.003108 0.000017 158.229351 11.339604 -172.511427 -62.687114 1.936667 4.341325 70.713392 -0.485692 8.152248 21.454550 -0.003101 0.000001 9.237732 -2.097481 -1.749538 8.532819 -4.060291 -3.651222 8.214544 -4.082387 -3.626640 15.581723 5.985138 14.142534 -11.544482 -22.244072 21.923615 -173.548727 -71.004065 -8.009593 -33.094886 42.409191 24.501200 -26.008365 -10.162704 0.872959 18.084987 16.011919 49.821620 -162.727399 77.741370 19.126811 5.142856 -74.667341 -44.960304 -38.930651 15.326828 -1.451440 8.890040 -1.788220 -64.746778 
-110.451698 89.753464 400.084503 94.765787 2.946372 146.220499 173.321200 -4.576906 167.375780 -30.453051 -3.995083 -9.302753 83.282088 5.832066 -3.285260 21.454562 0.003110 0.000017 158.127076 10.588894 -173.862971 -55.700363 1.175589 5.429962 71.441880 -1.331240 8.115289 21.454551 -0.003094 -0.000000 9.241071 -1.987992 -1.674561 8.535779 -3.847120 -3.493053 8.217550 -3.868270 -3.469781 15.293970 5.906241 13.905592 -11.279158 -22.136013 21.589080 -171.583395 -70.626676 -10.032420 -31.690708 43.896113 23.517600 -27.916467 -10.613326 0.934454 17.764187 13.046031 52.181317 -162.693904 77.722874 19.161083 3.809198 -73.372747 -43.886868 -39.014857 15.134161 -1.441041 10.079618 -0.985782 -69.097144 
-109.568703 90.076790 401.101410 94.352015 3.195051 147.133299 174.492783 -5.035602 168.109616 -29.056472 -3.986610 -9.145017 83.120076 5.657625 -3.601193 21.454563 0.003108 0.000017 159.358108 9.277098 -176.162518 -46.444115 -0.018283 4.963519 71.141215 -1.526204 6.360615 21.454553 -0.003093 0.000002 9.248319 -1.827362 -1.578103 8.538662 -3.533324 -3.288231 8.220470 -3.553243 -3.266849 15.050638 6.162412 13.490623 -10.956801 -21.921839 21.037736 -170.249691 -70.300487 -11.406414 -29.840304 45.354003 22.018595 -29.002858 -10.671307 0.957757 13.156613 8.210514 45.062549 -162.353173 77.647872 19.509184 3.620391 -71.626493 -43.230641 -38.839557 14.470078 -1.393301 10.984451 -0.361199 -66.850449 
-108.711403 90.325844 402.195587 94.154533 3.257566 148.700895 175.620174 -5.324997 169.168076 -27.677552 -3.997259 -8.816412 82.939971 5.381335 -3.844088 21.454558 0.003108 0.000017 162.141123 8.273997 179.263233 -35.501937 -0.492404 3.716904 70.212603 -0.983632 5.137119 21.454553 -0.003093 0.000001 9.251560 -1.691785 -1.558216 8.539983 -3.264005 -3.238255 8.221853 -3.283618 -3.218505 14.969463 6.667852 12.990272 -10.663968 -21.572669 20.371377 -169.345388 -70.183909 -12.338994 -27.589304 46.711807 20.553687 -29.798828 -10.463776 0.959087 7.928204 3.947859 32.476344 -161.805720 77.636588 20.067296 4.308037 -70.269451 -42.613677 -38.396219 14.118172 -1.359196 10.737934 -0.540993 -60.180797 
-107.814301 90.564743 403.300995 94.204291 3.205173 150.873305 176.904891 -5.499605 170.382457 -26.110533 -4.076205 -8.257827 82.649326 4.983815 -3.916941 21.454558 0.003109 0.000017 165.458764 7.975097 171.836112 -25.372519 0.339028 1.223861 68.655634 0.454562 3.956195 21.454551 -0.003091 0.000001 9.240856 -1.581553 -1.596685 8.515851 -3.041362 -3.306498 8.197825 -3.061395 -3.288097 15.155104 7.149087 12.431883 -10.317297 -20.947878 19.541291 -168.585092 -70.245641 -13.123104 -25.140398 47.874299 19.710999 -31.118591 -10.203648 0.967711 5.193491 1.804953 18.150715 -160.794292 77.610934 21.098512 5.225749 -69.498992 -41.458459 -37.471244 14.033329 -1.330817 10.228038 -1.436531 -51.313671 
-106.907700 90.663567 404.429688 94.591549 2.860209 153.219503 178.269399 -5.552001 171.236695 -24.719800 -4.319786 -7.375618 82.479377 4.402763 -3.817257 21.454560 0.003108 0.000017 168.526148 8.943801 164.153843 -17.826830 2.145634 0.479558 66.996984 1.407752 5.009386 21.454551 -0.003092 0.000001 9.203075 -1.543198 -1.609809 8.439273 -2.964924 -3.328895 8.121296 -2.985105 -3.310945 15.475616 7.311881 11.826638 -9.801660 -20.029309 18.525078 -167.634398 -70.194817 -14.103703 -22.907698 48.602496 19.731401 -33.168771 -10.217814 1.010815 5.191933 1.588393 6.473657 -159.355007 77.444940 22.567983 5.838241 -69.003981 -39.850927 -36.210443 13.849510 -1.288645 10.364313 -2.542623 -42.220469 
-106.115303 90.683311 405.578400 95.038442 2.481319 155.275690 179.564294 -5.823195 171.596577 -23.592886 -4.692009 -6.334989 82.397667 3.720831 -3.681632 21.454557 0.003109 0.000017 170.114495 10.247697 160.959623 -16.189019 3.902315 0.884960 66.913396 2.046608 7.597269 21.454555 -0.003091 0.000001 9.144036 -1.502636 -1.516097 8.317539 -2.892463 -3.137156 7.999513 -2.911476 -3.119652 15.737215 7.094204 11.241009 -9.325174 -19.142927 17.544193 -166.297799 -69.706827 -15.484508 -21.444122 48.776696 19.918998 -35.286844 -10.563694 1.080155 6.228292 2.007599 1.591027 -157.888101 77.125909 24.069102 5.089111 -68.546139 -37.623315 -34.631094 13.570619 -1.234240 10.909557 -3.052408 -35.118681 
-105.448502 90.584976 406.804108 95.498503 2.000362 156.891207 -179.463207 -6.098801 171.792153 -23.059369 -4.947648 -5.428304 82.350355 3.070397 -3.798911 21.454555 0.003108 0.000017 170.908969 11.103196 163.749660 -17.623512 4.652457 0.536370 69.304775 2.462768 8.612340 21.454550 -0.003095 -0.000000 9.078492 -1.463020 -1.341689 8.181021 -2.827568 -2.784183 7.862914 -2.844458 -2.767067 15.939380 6.703214 10.747829 -9.238488 -18.716551 16.871698 -165.040894 -68.801957 -16.788001 -20.785102 48.649604 19.499703 -36.535105 -11.136335 1.146674 6.658636 1.773510 4.125968 -156.877889 76.808264 25.105516 2.439437 -68.117429 -34.610047 -32.587720 13.338121 -1.174799 11.302396 -2.372558 -31.797392 
-104.928398 90.690048 408.034790 95.669046 1.933169 158.205404 -178.601278 -6.686797 172.415176 -22.261644 -4.977207 -4.994702 81.739640 2.663807 -4.212465 21.454562 0.003110 0.000017 171.147916 11.120194 169.125224 -19.637747 4.269318 -1.775058 70.261323 3.557549 7.051776 21.454555 -0.003089 0.000000 9.021545 -1.301416 -1.122668 8.057869 -2.521535 -2.333669 7.739725 -2.535715 -2.318407 16.140128 6.385498 10.356540 -9.544423 -18.713912 16.506590 -164.420712 -67.961680 -17.435603 -20.572603 48.993507 17.918197 -36.584590 -11.946659 1.200875 6.139800 0.257732 10.805451 -156.661795 76.681154 25.328611 -2.113776 -67.705896 -30.395797 -30.398542 13.131562 -1.117185 11.566622 -0.820503 -32.941111 
-104.580299 90.827431 409.295105 95.681654 1.925793 159.354993 -178.103016 -7.307009 173.546187 -21.622480 -4.865744 -4.954001 80.870744 2.445388 -4.918344 21.454553 0.003108 0.000017 171.282225 10.519699 173.441029 -21.334572 3.204968 -3.384369 70.882385 4.335070 5.930285 21.454555 -0.003091 0.000000 8.966367 -1.105761 -0.927107 7.939347 -2.145334 -1.928112 7.621207 -2.157076 -1.915122 16.292001 6.244037 10.033478 -9.875152 -18.722913 16.227643 -164.334502 -67.647799 -17.527408 -20.263703 50.371303 14.929095 -35.924828 -12.923396 1.248985 5.353415 -2.187000 17.205178 -157.445600 76.809384 24.526217 -7.464992 -67.131450 -25.417198 -28.824051 12.926782 -1.074275 12.090571 0.487557 -37.997592 
-104.420303 90.945824 410.545013 95.574864 1.883873 160.414601 -178.002421 -7.986604 174.837161 -21.248035 -4.779405 -5.014187 79.956414 2.266797 -5.699720 21.454560 0.003109 0.000017 171.163885 9.724700 175.647604 -22.812695 2.499188 -3.782443 71.335377 4.386863 5.249077 21.454553 -0.003092 0.000000 8.922962 -0.911654 -0.777067 7.846493 -1.768541 -1.614242 7.528363 -1.778393 -1.603538 16.286151 6.318671 9.777625 -9.986823 -18.539392 15.930940 -164.225396 -67.880790 -17.638496 -19.727296 52.604894 10.728616 -35.383296 -13.763239 1.290947 5.065228 -4.839943 20.333220 -159.029084 77.070352 22.906320 -12.913822 -66.178850 -20.276197 -28.348417 12.787920 -1.056711 12.893149 0.707558 -45.153435 
-104.449799 90.999550 411.753204 95.439394 1.764899 161.392589 -178.308946 -8.742296 175.770643 -21.355987 -4.755193 -4.829477 79.146279 1.935370 -6.375941 21.454558 0.003108 0.000018 170.726521 9.039001 176.182967 -24.369833 2.492436 -3.348945 71.775794 3.871112 4.707127 21.454553 -0.003093 0.000000 8.927057 -0.736984 -0.674357 7.850555 -1.426527 -1.397169 7.532472 -1.435080 -1.388535 16.098845 6.650120 9.648588 -9.984929 -18.477055 15.795181 -163.884788 -68.285185 -17.987494 -18.989005 54.776905 6.632594 -35.443064 -14.213278 1.321499 5.585914 -7.085445 18.793296 -160.921579 77.338478 20.972321 -18.369420 -64.743110 -15.519235 -28.776871 12.771672 -1.063412 13.448619 0.068993 -51.748559 
